<svg width="903" height="627" viewBox="0 0 903 627" fill="none" xmlns="http://www.w3.org/2000/svg">
<mask id="mask0_77_112" style="mask-type:alpha" maskUnits="userSpaceOnUse" x="1" y="0" width="901" height="625">
<path fill-rule="evenodd" clip-rule="evenodd" d="M314.513 358.504C307.752 348.465 295.785 342.004 283.755 341.957C276.433 341.928 265.864 344.547 259.795 348.708L237.84 362.31L198.03 390.872L191.169 394.981L177.443 404.509C176.53 405.134 175.598 405.739 174.664 406.344C172.297 407.877 169.921 409.417 167.834 411.316C162.864 415.839 157.766 421.522 156.819 427.7C154.721 441.38 162.204 455.25 167.63 463.333C174.39 473.372 189.741 483.953 201.771 484C209.094 484.029 219.006 480.039 225.074 475.879L260.756 452.747L266.248 448.662L315.678 410.527C324.673 404.367 325.402 400.166 326.709 390.037C327.829 381.353 319.759 366.32 314.513 358.504ZM253.635 343.208C263.899 336.224 272.355 333.699 283.788 333.744C290.632 333.771 309.28 337.523 320.667 354.422C330.578 369.13 335.959 382.992 334.518 395.539C334.053 399.592 330.945 405.27 330 406.613C329.055 407.956 327.167 409.702 327 410L278.889 448.254L271.383 453.263L264.703 457.721L235.314 477.332C225.049 484.316 215.208 490.897 203.776 490.853C184.947 490.779 172.798 484.272 161.432 467.415C148.63 448.417 145.253 432.181 153.624 417.826C155.346 414.873 157.565 412 160.301 409.199C163.252 406.178 166.805 403.24 170.984 400.377L184.8 390.821L191.883 385.921L236.538 355.034L253.635 343.208Z" fill="url(#paint0_linear_77_112)"/>
<path d="M200.501 278.661C189.966 278.62 181.904 283.562 172.317 289.502L120.94 320.785C120.44 321.064 119.944 321.346 119.452 321.632C116.963 323.076 114.575 324.61 112.3 326.225C88.667 343.001 77.1931 368.48 91.4406 391.885C102.429 409.936 121.518 419.949 141.095 420.026C145.409 420.043 149.555 419.198 153.624 417.826C155.346 414.873 157.565 412 160.301 409.199C153.673 411.191 145.543 412.598 141.124 412.58C135.658 412.559 123.269 409.905 115.137 404.265C105.097 397.301 103.046 393.656 98.1774 385.003L98.1592 384.97C97.9208 384.547 97.6757 384.111 97.4226 383.662C91.9848 374.026 94.202 361.747 97.5406 353.547C101.001 345.048 110.705 337.198 118.576 331.817C120.969 330.181 123.193 328.774 125.02 327.646L125.725 327.199L174.423 296.355C175.763 295.522 177.01 294.7 178.234 293.893C182.14 291.317 185.803 288.902 191.456 286.84C198.88 284.131 214.011 284.58 222.304 289.698C230.004 294.45 231.486 296.838 234.632 302.067C238.745 308.836 242.353 318.38 242.743 328.107C243.106 337.18 240.99 346.764 236.538 355.034L245.261 349L246.439 345.648L247.616 342.296C251.457 328.271 249.729 313.23 241.172 299.22C230.184 281.095 211.037 278.703 200.501 278.661Z" fill="url(#paint1_linear_77_112)"/>
<path d="M358.548 397.006C367.888 397.043 380.532 400.963 390.259 410.819C397.765 418.426 404.7 429.891 404.536 440.991C404.4 450.25 398.431 459.252 392.12 465.582L341.93 517.403L335.765 524.224L300.03 561.044C293.353 567.668 284.918 574.673 272.599 574.625C257.536 575.935 247.797 566.195 241.174 559.444C223.437 544.317 220.666 518.581 234.544 504.662L271.654 466.479L278.525 459.661L327 410L278.889 448.254L272.634 454.384L266.683 460.216L232.512 493.703C209.932 516.255 211.906 542.164 234.308 564.893C245.471 576.294 255.228 582.77 270.023 582.828C284.743 582.886 294.813 579.151 306.14 567.912L336.766 536.124L342.089 530.598L350.124 522.258L395.482 475.178C398.922 471.742 401.825 468.229 404.195 464.66C417.384 444.807 414.088 423.26 395.099 403.994C383.86 392.667 373.298 389.309 358.579 389.251C348.937 389.214 341.609 391.085 334.518 395.539C334.053 399.592 330.945 405.27 330 406.613C329.055 407.956 327.167 409.702 327 410L330.424 406.344C337.174 399.72 349.133 396.969 358.548 397.006Z" fill="url(#paint2_linear_77_112)"/>
<path fill-rule="evenodd" clip-rule="evenodd" d="M330.877 543.369C312.99 566.57 316.325 594.508 335.422 611.831C346.59 621.963 357.728 624.239 371.626 624.293C387.841 624.357 396.291 618.377 407.999 605.272L415.168 596.069L420.676 588.998L454.777 545.224C474.037 520.659 474.112 501.495 453.665 479.512C442.497 469.381 432.339 463.002 418.441 462.948C412.977 462.926 408.362 463.452 404.195 464.66C401.825 468.229 398.922 471.742 395.482 475.178L350.124 522.258L342.089 530.598L336.766 536.124L330.877 543.369ZM448.179 482.229C441.552 476.225 432.468 468.478 418.42 468.423C405.091 468.371 394.838 478.281 387.933 486.099L353.561 524.293L345.31 533.843L338.433 542.03C330.99 550.399 325.436 566.414 325.968 578.941C326.403 589.151 334.822 601.616 341.575 607.749C353.863 616.011 362.761 617.414 371.653 617.449C382.039 617.49 394.922 610.328 401.827 602.51L410.318 591.748L415.86 584.723L451.354 539.735C458.419 531.79 464.816 517.812 463.14 506.927C460.44 497.335 455.353 488.744 448.179 482.229Z" fill="url(#paint3_linear_77_112)"/>
<path fill-rule="evenodd" clip-rule="evenodd" d="M193.292 22.6505C177.79 12.4276 164.117 7.47829 147.529 7.41326C134.304 7.36141 115.038 13.5176 100.187 27.8059L74.4662 50.9314L41.1108 82.2851C20.7811 102.754 8.59257 136.298 9.31548 161.556C10.3675 198.174 35.1429 246.604 73.5646 280.902L119.452 321.632C116.963 323.076 114.575 324.61 112.3 326.225L72.4446 290.716C16.7476 241.107 -35.3488 149.817 37.866 76.6534L90.2878 27.7671C111.363 7.60025 130.37 0.501529 147.556 0.568903C170.834 0.660162 190.783 13.8504 208.022 25.2483C218.45 32.1433 227.886 38.3824 236.467 40.6691C244.006 42.6415 250.877 43.4903 257.377 43.5158C273.161 43.5777 286.421 38.7341 300.709 33.5147C317.4 27.4177 335.495 20.8079 360.656 20.9066C373.583 20.9573 388.296 22.7335 405.613 27.2847C424.689 32.2498 440.736 38.7303 460.213 49.6061L464.415 47.7556L504.856 29.9483C513.462 26.8437 526.17 25.3244 540.218 25.3795C569.575 25.4945 605.445 32.8246 621.657 47.601C649.329 53.1667 666.453 48.5858 672.971 46.8419C673.14 46.7968 673.302 46.7535 673.456 46.7124L673.556 46.6857L673.56 46.6849L673.563 46.6839L673.572 46.6816C673.956 46.5794 674.29 46.4906 674.573 46.419C683.191 44.2228 692.699 38.0525 703.209 31.2321C720.52 19.9983 740.548 7.00066 763.795 7.0918C780.98 7.15917 799.931 14.4067 820.848 34.6634L872.885 83.9593C938.56 150.626 880.224 281.675 804.855 344.095C805.361 344.997 805.843 345.909 806.3 346.832C816.836 368.084 814.449 394.498 798.178 413.713L796.677 415.5C784.666 429.65 767.676 436.831 750.565 436.764C741.15 436.727 731.744 434.524 723.094 430.006C727.729 448.555 723.689 468.938 710.477 484.503L708.975 486.291C696.965 500.366 679.974 507.622 662.863 507.555C649.937 507.504 636.952 503.269 626.002 494.708C628.625 511.68 624.221 529.596 612.285 543.671L610.784 545.459C598.773 559.609 581.783 566.865 564.672 566.798C552.119 566.748 539.581 562.814 528.927 554.852C530.137 570.324 525.442 586.221 514.632 598.956L513.13 600.743C501.12 614.893 484.055 622.149 466.944 622.082C453.121 622.028 439.241 617.191 427.922 607.433L415.168 596.069L420.676 588.998L436.05 602.644C442.603 608.273 458.008 614.223 466.974 614.258C478.183 614.302 490.778 609.703 497.643 604.254C504.392 598.898 504.769 598.453 511.054 591.012L511.386 590.619C517.992 582.799 519.663 574.225 521.07 564.648C521.803 560.356 521.405 557.932 521.058 555.813C520.741 553.879 520.466 552.2 521.129 549.59C521.824 546.855 524.255 545.119 527.991 545.134C531.229 545.147 533.312 547.193 535.582 549.422C536.612 550.434 537.681 551.483 538.914 552.398C545.47 557.28 556.751 559.312 564.895 559.344C576.103 559.388 589.556 553.965 597.796 547.153C603.809 542.182 605.06 540.108 607.437 536.168L607.438 536.166L607.439 536.164C608.319 534.705 609.354 532.99 610.841 530.778C616.349 522.586 618.468 512.043 618.512 500.692C618.523 497.88 617.934 495.534 617.444 493.585C616.886 491.366 616.458 489.661 617.191 488.367C618.571 485.635 622.067 482.788 625.421 484.17C627.78 485.142 629.556 486.65 631.802 488.557C632.75 489.362 633.782 490.238 634.976 491.174C641.68 496.431 656.61 500.841 665.054 500.875C676.187 500.918 692.466 492.004 699.333 486.253C706.2 480.502 708.954 476.407 711.713 470.942C714.473 465.477 719.991 454.548 717.323 436.742C717.233 436.138 716.862 434.916 716.422 433.47C715.632 430.868 714.621 427.54 714.628 425.78C714.639 423.042 717.387 420.315 720.125 420.326C723.637 420.34 726.25 421.288 729.696 423.101C734.991 425.887 745.605 427.27 751.582 427.294C762.79 427.338 773.495 424.642 783.109 416.466C792.724 408.29 796.553 401.461 799.622 394.628C802.69 387.796 805.07 378.447 803.83 368.636C803.007 362.123 800.359 355.708 797.631 350.6C797.421 350.207 797.21 349.821 797 349.444C795.954 347.568 794.917 345.897 793.986 344.5C793.79 344.206 793.599 343.925 793.413 343.656C792.721 342.652 792.107 341.826 791.618 341.21L774.461 324.704L769.621 320.048L761.615 312.346C761.615 312.346 666.146 226.394 599 165.5C599 165.5 598.314 164.908 597.394 164.394C597.024 164.188 593.489 163.304 588.738 162.116C581.666 160.347 571.897 157.904 565.858 156.018C560.111 154.277 554.062 153.431 547.711 153.406C515.004 153.278 475.543 174.289 441.277 192.534C418.32 204.758 397.694 215.741 382.995 218.291C373.349 219.972 364.902 220.835 357.43 220.806C333.221 220.711 318.987 211.166 306.222 188.923C289.524 159.791 299.296 125.906 330.605 106.676L453.641 52.5C435.54 42.4532 420.203 36.2464 402.697 31.6848C388.29 27.8922 380.816 26.1234 357.546 26.0322C338.323 25.9568 324.194 31.2044 309.81 36.5471C308.371 37.0816 306.93 37.617 305.48 38.1481C304.338 38.5607 303.207 38.972 302.085 39.3798L302.083 39.3808C288.135 44.4512 275.671 48.9824 263.002 48.9327C254.185 48.8982 243.373 48.5091 234.267 46.0823C224.07 43.4122 210.507 34.2503 199.407 26.7516C197.263 25.3029 195.21 23.9162 193.292 22.6505ZM764.159 12.5685C783.324 12.6436 802.561 22.9379 817.448 37.4174L870.631 89.6438C889.725 107.514 900.532 144.517 894.927 177.348C888.746 231.055 848.262 302.211 802.002 339.5C799.085 335.24 795.578 331.285 791.491 327.757L769.463 307.983L764.542 303.567L613.506 167.991C613.506 167.991 607.522 161.468 604.285 159.713C602.264 158.618 602.057 158.579 595.713 157.376C593.714 156.997 589.536 156.111 587.718 155.61C587.275 155.489 586.91 155.389 586.593 155.303C585.258 154.939 584.773 154.807 582.91 154.223C581.251 153.716 579.273 152.994 577.051 152.182C568.978 149.233 557.676 145.105 546.689 145.867C516.598 147.955 499.341 155.834 476.874 166.091L476.796 166.127C474.31 167.262 471.629 168.81 468.865 170.407C465.62 172.28 462.26 174.221 458.963 175.639C457.687 176.322 455.506 177.847 455.506 177.847L452.103 179.719C430.784 191.136 395.319 209.095 384.905 210.94C376.681 213.645 363.431 214.962 357.453 214.939C351.376 214.915 342.753 214.474 335.625 210.747C326.699 206.08 318.058 197.128 312.446 187.385C305.334 175.037 301.406 158.087 307.153 140.822C311.257 128.491 327.082 114.891 335.311 110.816L459.384 56.0424L466 53L505.346 36.1939C519.736 30.2643 527.097 30.3891 536.165 30.5429C537.465 30.5649 538.801 30.5876 540.197 30.5931C577.481 30.233 606.119 42.0304 613.444 47.5688C614.323 48.2341 615.332 49.1465 616.318 50.0387C617.9 51.4703 619.424 52.8495 620.267 53.0711C621.634 53.4309 634.133 56.2231 649.002 55.9216C660.811 55.6821 674.032 53.8233 679.133 51.933C686.944 49.0389 696.38 42.4553 705.468 36.1151L705.47 36.1137C709.142 33.5519 712.757 31.0299 716.184 28.8071C731.841 18.7811 747.646 12.5037 764.159 12.5685Z" fill="url(#paint4_linear_77_112)"/>
</mask>
<g mask="url(#mask0_77_112)">
<g filter="url(#filter0_f_77_112)">
<ellipse cx="103.983" cy="83.1945" rx="313" ry="57" transform="rotate(15.2246 103.983 83.1945)" fill="#23BED9"/>
</g>
<g filter="url(#filter1_f_77_112)">
<ellipse cx="502.771" cy="494.124" rx="342.127" ry="218.588" transform="rotate(44.0659 502.771 494.124)" fill="#F15E7E"/>
</g>
<g filter="url(#filter2_f_77_112)">
<ellipse cx="439.077" cy="285.174" rx="467.917" ry="210.817" transform="rotate(-36.9676 439.077 285.174)" fill="url(#paint5_radial_77_112)" fill-opacity="0.4"/>
</g>
</g>
<defs>
<filter id="filter0_f_77_112" x="-378.409" y="-195.715" width="964.785" height="557.818" filterUnits="userSpaceOnUse" color-interpolation-filters="sRGB">
<feFlood flood-opacity="0" result="BackgroundImageFix"/>
<feBlend mode="normal" in="SourceGraphic" in2="BackgroundImageFix" result="shape"/>
<feGaussianBlur stdDeviation="90" result="effect1_foregroundBlur_77_112"/>
</filter>
<filter id="filter1_f_77_112" x="33.6897" y="28.9841" width="938.163" height="930.28" filterUnits="userSpaceOnUse" color-interpolation-filters="sRGB">
<feFlood flood-opacity="0" result="BackgroundImageFix"/>
<feBlend mode="normal" in="SourceGraphic" in2="BackgroundImageFix" result="shape"/>
<feGaussianBlur stdDeviation="90" result="effect1_foregroundBlur_77_112"/>
</filter>
<filter id="filter2_f_77_112" x="-105.796" y="-192.824" width="1089.75" height="955.997" filterUnits="userSpaceOnUse" color-interpolation-filters="sRGB">
<feFlood flood-opacity="0" result="BackgroundImageFix"/>
<feBlend mode="normal" in="SourceGraphic" in2="BackgroundImageFix" result="shape"/>
<feGaussianBlur stdDeviation="75" result="effect1_foregroundBlur_77_112"/>
</filter>
<linearGradient id="paint0_linear_77_112" x1="700.212" y1="17.6065" x2="697.828" y2="625.572" gradientUnits="userSpaceOnUse">
<stop stop-color="#23BED9"/>
<stop offset="1" stop-color="#1F1D28" stop-opacity="0"/>
</linearGradient>
<linearGradient id="paint1_linear_77_112" x1="700.212" y1="17.6065" x2="697.828" y2="625.572" gradientUnits="userSpaceOnUse">
<stop stop-color="#23BED9"/>
<stop offset="1" stop-color="#1F1D28" stop-opacity="0"/>
</linearGradient>
<linearGradient id="paint2_linear_77_112" x1="700.212" y1="17.6065" x2="697.828" y2="625.572" gradientUnits="userSpaceOnUse">
<stop stop-color="#23BED9"/>
<stop offset="1" stop-color="#1F1D28" stop-opacity="0"/>
</linearGradient>
<linearGradient id="paint3_linear_77_112" x1="700.212" y1="17.6065" x2="697.828" y2="625.572" gradientUnits="userSpaceOnUse">
<stop stop-color="#23BED9"/>
<stop offset="1" stop-color="#1F1D28" stop-opacity="0"/>
</linearGradient>
<linearGradient id="paint4_linear_77_112" x1="700.212" y1="17.6065" x2="697.828" y2="625.572" gradientUnits="userSpaceOnUse">
<stop stop-color="#23BED9"/>
<stop offset="1" stop-color="#1F1D28" stop-opacity="0"/>
</linearGradient>
<radialGradient id="paint5_radial_77_112" cx="0" cy="0" r="1" gradientUnits="userSpaceOnUse" gradientTransform="translate(511.977 305.034) rotate(26.296) scale(293.111 233.821)">
<stop stop-color="#2B1867"/>
<stop offset="0.487063" stop-color="#382383"/>
<stop offset="0.781641" stop-color="#452896"/>
<stop offset="1" stop-color="#76248E"/>
</radialGradient>
</defs>
</svg>
