<svg width="12" height="16" viewBox="0 0 12 16" fill="none" xmlns="http://www.w3.org/2000/svg">
<path fill-rule="evenodd" clip-rule="evenodd" d="M2 0C0.89543 0 0 0.895431 0 2V14C0 15.1046 0.895431 16 2 16H10C11.1046 16 12 15.1046 12 14V2C12 0.895431 11.1046 0 10 0H2ZM3 2C2.44772 2 2 2.44772 2 3C2 3.55228 2.44772 4 3 4H9C9.55228 4 10 3.55228 10 3C10 2.44772 9.55228 2 9 2H3ZM9 9C9.55229 9 10 9.44771 10 10V13C10 13.5523 9.55229 14 9 14C8.44771 14 8 13.5523 8 13V10C8 9.44771 8.44771 9 9 9ZM6 12C5.44772 12 5 12.4477 5 13C5 13.5523 5.44772 14 6 14H6.01C6.56228 14 7.01 13.5523 7.01 13C7.01 12.4477 6.56228 12 6.01 12H6ZM2 13C2 12.4477 2.44772 12 3 12H3.01C3.56228 12 4.01 12.4477 4.01 13C4.01 13.5523 3.56228 14 3.01 14H3C2.44772 14 2 13.5523 2 13ZM3 9C2.44772 9 2 9.44771 2 10C2 10.5523 2.44772 11 3 11H3.01C3.56228 11 4.01 10.5523 4.01 10C4.01 9.44771 3.56228 9 3.01 9H3ZM5 10C5 9.44771 5.44772 9 6 9H6.01C6.56228 9 7.01 9.44771 7.01 10C7.01 10.5523 6.56228 11 6.01 11H6C5.44772 11 5 10.5523 5 10ZM9 6C8.44771 6 8 6.44772 8 7C8 7.55228 8.44771 8 9 8H9.01C9.56229 8 10.01 7.55228 10.01 7C10.01 6.44772 9.56229 6 9.01 6H9ZM5 7C5 6.44772 5.44772 6 6 6H6.01C6.56228 6 7.01 6.44772 7.01 7C7.01 7.55228 6.56228 8 6.01 8H6C5.44772 8 5 7.55228 5 7ZM3 6C2.44772 6 2 6.44772 2 7C2 7.55228 2.44772 8 3 8H3.01C3.56228 8 4.01 7.55228 4.01 7C4.01 6.44772 3.56228 6 3.01 6H3Z" fill="#F2F2F2"/>
</svg>
