<svg width="30" height="30" viewBox="0 0 30 30" fill="none" xmlns="http://www.w3.org/2000/svg">
<path d="M26.0981 29.337H3.40274C1.6935 29.337 0.307922 27.9514 0.307922 26.2421V3.54679C0.307922 1.83754 1.6935 0.451965 3.40274 0.451965H26.0981C27.8073 0.451965 29.1929 1.83754 29.1929 3.54679V26.2421C29.1929 27.9514 27.8073 29.337 26.0981 29.337ZM12.9009 23.0146L24.7644 11.1511C25.1672 10.7482 25.1672 10.095 24.7644 9.6922L23.3055 8.23331C22.9026 7.83047 22.2494 7.83041 21.8465 8.23331L12.1714 17.9084L7.65432 13.3913C7.25148 12.9884 6.59828 12.9884 6.19537 13.3913L4.73648 14.8502C4.33364 15.253 4.33364 15.9062 4.73648 16.3091L11.4419 23.0145C11.8448 23.4175 12.498 23.4175 12.9009 23.0146Z" fill="#228BBC"/>
</svg>
