<svg width="770" height="959" viewBox="0 0 770 959" fill="none" xmlns="http://www.w3.org/2000/svg">
<path d="M343.911 479.653L17.0578 152.799C-5.53358 130.208 -5.53358 93.6773 17.0578 71.3263L71.3731 17.0109C93.9645 -5.58045 130.495 -5.58045 152.846 17.0109L384.528 248.692L616.209 17.0109C638.8 -5.58045 675.331 -5.58045 697.682 17.0109L752.478 71.0859C775.07 93.6773 775.07 130.208 752.478 152.559L425.625 479.413C403.033 502.244 366.503 502.244 343.911 479.653ZM425.625 941.093L752.478 614.24C775.07 591.648 775.07 555.118 752.478 532.767L698.163 478.451C675.571 455.86 639.041 455.86 616.69 478.451L384.768 709.892L153.087 478.211C130.495 455.619 93.9645 455.619 71.6135 478.211L17.0578 532.526C-5.53358 555.118 -5.53358 591.648 17.0578 613.999L343.911 940.853C366.503 963.685 403.033 963.684 425.625 941.093Z" fill="#F2F2F2"/>
</svg>
