<svg width="770" height="880" viewBox="0 0 770 880" fill="none" xmlns="http://www.w3.org/2000/svg">
<path d="M55.0648 796.85C55.0648 818.711 63.7489 839.676 79.2068 855.134C94.6646 870.592 115.63 879.276 137.491 879.276H632.045C653.906 879.276 674.871 870.592 690.329 855.134C705.787 839.676 714.471 818.711 714.471 796.85V219.87H55.0648V796.85ZM522.144 357.246C522.144 349.959 525.039 342.971 530.192 337.818C535.344 332.666 542.333 329.771 549.62 329.771C556.907 329.771 563.895 332.666 569.048 337.818C574.2 342.971 577.095 349.959 577.095 357.246V741.9C577.095 749.187 574.2 756.175 569.048 761.328C563.895 766.48 556.907 769.375 549.62 769.375C542.333 769.375 535.344 766.48 530.192 761.328C525.039 756.175 522.144 749.187 522.144 741.9V357.246ZM357.293 357.246C357.293 349.959 360.187 342.971 365.34 337.818C370.493 332.666 377.481 329.771 384.768 329.771C392.055 329.771 399.043 332.666 404.196 337.818C409.349 342.971 412.243 349.959 412.243 357.246V741.9C412.243 749.187 409.349 756.175 404.196 761.328C399.043 766.48 392.055 769.375 384.768 769.375C377.481 769.375 370.493 766.48 365.34 761.328C360.187 756.175 357.293 749.187 357.293 741.9V357.246ZM192.441 357.246C192.441 349.959 195.336 342.971 200.488 337.818C205.641 332.666 212.63 329.771 219.916 329.771C227.203 329.771 234.192 332.666 239.344 337.818C244.497 342.971 247.392 349.959 247.392 357.246V741.9C247.392 749.187 244.497 756.175 239.344 761.328C234.192 766.48 227.203 769.375 219.916 769.375C212.63 769.375 205.641 766.48 200.488 761.328C195.336 756.175 192.441 749.187 192.441 741.9V357.246ZM741.946 55.0182H535.882L519.74 22.9065C516.321 16.0414 511.054 10.2666 504.531 6.23173C498.009 2.19692 490.49 0.0621832 482.82 0.0676839H286.544C278.892 0.0382673 271.386 2.16504 264.887 6.20435C258.387 10.2437 253.157 16.0321 249.796 22.9065L233.654 55.0182H27.5895C20.3026 55.0182 13.3142 57.9129 8.16158 63.0655C3.00897 68.2181 0.114258 75.2066 0.114258 82.4935L0.114258 137.444C0.114258 144.731 3.00897 151.719 8.16158 156.872C13.3142 162.025 20.3026 164.919 27.5895 164.919H741.946C749.233 164.919 756.222 162.025 761.374 156.872C766.527 151.719 769.422 144.731 769.422 137.444V82.4935C769.422 75.2066 766.527 68.2181 761.374 63.0655C756.222 57.9129 749.233 55.0182 741.946 55.0182Z" fill="#F2F2F2"/>
</svg>
